<mxfile host="65bd71144e">
    <diagram id="fjN8D4Odn0497USpxgly" name="Page-1">
        <mxGraphModel dx="1261" dy="1459" grid="1" gridSize="10" guides="1" tooltips="1" connect="1" arrows="1" fold="1" page="1" pageScale="1" pageWidth="1169" pageHeight="827" background="#ffffff" math="0" shadow="0">
            <root>
                <mxCell id="0"/>
                <mxCell id="1" parent="0"/>
                <mxCell id="158" value="" style="rounded=0;whiteSpace=wrap;html=1;strokeColor=none;" vertex="1" parent="1">
                    <mxGeometry x="20" y="-820" width="840" height="450" as="geometry"/>
                </mxCell>
                <mxCell id="120" value="«component»&lt;br&gt;&lt;b&gt;Registry API&lt;/b&gt;" style="html=1;dropTarget=0;verticalAlign=top;fillColor=#dae8fc;strokeColor=#6c8ebf;" parent="1" vertex="1">
                    <mxGeometry x="31" y="-810" width="820" height="260" as="geometry"/>
                </mxCell>
                <mxCell id="121" value="" style="shape=module;jettyWidth=8;jettyHeight=4;" parent="120" vertex="1">
                    <mxGeometry x="1" width="20" height="20" relative="1" as="geometry">
                        <mxPoint x="-27" y="7" as="offset"/>
                    </mxGeometry>
                </mxCell>
                <mxCell id="122" value="«schema»&lt;br&gt;&lt;b&gt;My app&lt;/b&gt;" style="html=1;dropTarget=0;verticalAlign=top;" parent="1" vertex="1">
                    <mxGeometry x="50" y="-620" width="160" height="50" as="geometry"/>
                </mxCell>
                <mxCell id="123" value="" style="shape=module;jettyWidth=8;jettyHeight=4;" parent="122" vertex="1">
                    <mxGeometry x="1" width="20" height="20" relative="1" as="geometry">
                        <mxPoint x="-27" y="7" as="offset"/>
                    </mxGeometry>
                </mxCell>
                <mxCell id="126" value="«schema»&lt;br&gt;&lt;b&gt;LED Strip&lt;/b&gt;" style="html=1;dropTarget=0;verticalAlign=top;" parent="1" vertex="1">
                    <mxGeometry x="220" y="-620" width="160" height="50" as="geometry"/>
                </mxCell>
                <mxCell id="127" value="" style="shape=module;jettyWidth=8;jettyHeight=4;" parent="126" vertex="1">
                    <mxGeometry x="1" width="20" height="20" relative="1" as="geometry">
                        <mxPoint x="-27" y="7" as="offset"/>
                    </mxGeometry>
                </mxCell>
                <mxCell id="128" value="&lt;b&gt;&lt;br&gt;Registry&lt;/b&gt;" style="html=1;dropTarget=0;verticalAlign=top;fillColor=#dae8fc;strokeColor=#6c8ebf;" parent="1" vertex="1">
                    <mxGeometry x="351" y="-740" width="180" height="55" as="geometry"/>
                </mxCell>
                <mxCell id="129" value="" style="shape=module;jettyWidth=8;jettyHeight=4;" parent="128" vertex="1">
                    <mxGeometry x="1" width="20" height="20" relative="1" as="geometry">
                        <mxPoint x="-27" y="7" as="offset"/>
                    </mxGeometry>
                </mxCell>
                <mxCell id="130" value="" style="endArrow=block;startArrow=block;endFill=1;startFill=1;html=1;edgeStyle=orthogonalEdgeStyle;rounded=0;entryX=0;entryY=0.5;entryDx=0;entryDy=0;" parent="1" source="122" target="128" edge="1">
                    <mxGeometry width="160" relative="1" as="geometry">
                        <mxPoint x="270" y="-380" as="sourcePoint"/>
                        <mxPoint x="220" y="-850" as="targetPoint"/>
                        <Array as="points">
                            <mxPoint x="130" y="-712"/>
                        </Array>
                    </mxGeometry>
                </mxCell>
                <mxCell id="131" value="" style="endArrow=block;startArrow=block;endFill=1;startFill=1;html=1;edgeStyle=orthogonalEdgeStyle;rounded=0;entryX=0;entryY=0.5;entryDx=0;entryDy=0;" parent="1" source="126" target="128" edge="1">
                    <mxGeometry width="160" relative="1" as="geometry">
                        <mxPoint x="150.05882352941194" y="-520" as="sourcePoint"/>
                        <mxPoint x="361" y="-675" as="targetPoint"/>
                        <Array as="points">
                            <mxPoint x="300" y="-712"/>
                        </Array>
                    </mxGeometry>
                </mxCell>
                <mxCell id="133" value="«driver»&lt;br&gt;&lt;b&gt;WS2812&lt;/b&gt;" style="html=1;dropTarget=0;verticalAlign=top;fillColor=#fff2cc;strokeColor=#d6b656;" parent="1" vertex="1">
                    <mxGeometry x="220" y="-510" width="160" height="50" as="geometry"/>
                </mxCell>
                <mxCell id="134" value="" style="shape=module;jettyWidth=8;jettyHeight=4;" parent="133" vertex="1">
                    <mxGeometry x="1" width="20" height="20" relative="1" as="geometry">
                        <mxPoint x="-27" y="7" as="offset"/>
                    </mxGeometry>
                </mxCell>
                <mxCell id="135" value="«driver»&lt;br&gt;&lt;b&gt;SK6812&lt;/b&gt;" style="html=1;dropTarget=0;verticalAlign=top;fillColor=#fff2cc;strokeColor=#d6b656;" parent="1" vertex="1">
                    <mxGeometry x="240" y="-470" width="160" height="50" as="geometry"/>
                </mxCell>
                <mxCell id="136" value="" style="shape=module;jettyWidth=8;jettyHeight=4;" parent="135" vertex="1">
                    <mxGeometry x="1" width="20" height="20" relative="1" as="geometry">
                        <mxPoint x="-27" y="7" as="offset"/>
                    </mxGeometry>
                </mxCell>
                <mxCell id="138" value="«application»&lt;br&gt;&lt;b&gt;My app&lt;/b&gt;" style="html=1;dropTarget=0;verticalAlign=top;fillColor=#ffe6cc;strokeColor=#d79b00;" parent="1" vertex="1">
                    <mxGeometry x="50" y="-510" width="160" height="50" as="geometry"/>
                </mxCell>
                <mxCell id="139" value="" style="shape=module;jettyWidth=8;jettyHeight=4;" parent="138" vertex="1">
                    <mxGeometry x="1" width="20" height="20" relative="1" as="geometry">
                        <mxPoint x="-27" y="7" as="offset"/>
                    </mxGeometry>
                </mxCell>
                <mxCell id="140" value="«storage facility»&lt;br&gt;&lt;b&gt;EEPROM&lt;/b&gt;" style="html=1;dropTarget=0;verticalAlign=top;" parent="1" vertex="1">
                    <mxGeometry x="500" y="-620" width="160" height="50" as="geometry"/>
                </mxCell>
                <mxCell id="141" value="" style="shape=module;jettyWidth=8;jettyHeight=4;" parent="140" vertex="1">
                    <mxGeometry x="1" width="20" height="20" relative="1" as="geometry">
                        <mxPoint x="-27" y="7" as="offset"/>
                    </mxGeometry>
                </mxCell>
                <mxCell id="142" value="«storage facility»&lt;br&gt;&lt;b&gt;FAT&lt;/b&gt;" style="html=1;dropTarget=0;verticalAlign=top;" parent="1" vertex="1">
                    <mxGeometry x="670" y="-620" width="160" height="50" as="geometry"/>
                </mxCell>
                <mxCell id="143" value="" style="shape=module;jettyWidth=8;jettyHeight=4;" parent="142" vertex="1">
                    <mxGeometry x="1" width="20" height="20" relative="1" as="geometry">
                        <mxPoint x="-27" y="7" as="offset"/>
                    </mxGeometry>
                </mxCell>
                <mxCell id="144" value="" style="endArrow=block;startArrow=block;endFill=1;startFill=1;html=1;edgeStyle=orthogonalEdgeStyle;rounded=0;entryX=1;entryY=0.5;entryDx=0;entryDy=0;" parent="1" source="140" target="128" edge="1">
                    <mxGeometry width="160" relative="1" as="geometry">
                        <mxPoint x="305" y="-610" as="sourcePoint"/>
                        <mxPoint x="660" y="-870" as="targetPoint"/>
                        <Array as="points">
                            <mxPoint x="580" y="-712"/>
                        </Array>
                    </mxGeometry>
                </mxCell>
                <mxCell id="145" value="" style="endArrow=block;startArrow=block;endFill=1;startFill=1;html=1;edgeStyle=orthogonalEdgeStyle;rounded=0;entryX=1;entryY=0.5;entryDx=0;entryDy=0;" parent="1" source="142" target="128" edge="1">
                    <mxGeometry width="160" relative="1" as="geometry">
                        <mxPoint x="590" y="-610" as="sourcePoint"/>
                        <mxPoint x="535" y="-685" as="targetPoint"/>
                        <Array as="points">
                            <mxPoint x="750" y="-712"/>
                        </Array>
                    </mxGeometry>
                </mxCell>
                <mxCell id="146" value="«driver»&lt;br&gt;&lt;b&gt;EEPROM&lt;/b&gt;" style="html=1;dropTarget=0;verticalAlign=top;fillColor=#fff2cc;strokeColor=#d6b656;" parent="1" vertex="1">
                    <mxGeometry x="500" y="-510" width="160" height="50" as="geometry"/>
                </mxCell>
                <mxCell id="147" value="" style="shape=module;jettyWidth=8;jettyHeight=4;" parent="146" vertex="1">
                    <mxGeometry x="1" width="20" height="20" relative="1" as="geometry">
                        <mxPoint x="-27" y="7" as="offset"/>
                    </mxGeometry>
                </mxCell>
                <mxCell id="148" value="«driver»&lt;br&gt;&lt;b&gt;FAT&lt;/b&gt;" style="html=1;dropTarget=0;verticalAlign=top;fillColor=#fff2cc;strokeColor=#d6b656;" parent="1" vertex="1">
                    <mxGeometry x="670" y="-510" width="160" height="50" as="geometry"/>
                </mxCell>
                <mxCell id="149" value="" style="shape=module;jettyWidth=8;jettyHeight=4;" parent="148" vertex="1">
                    <mxGeometry x="1" width="20" height="20" relative="1" as="geometry">
                        <mxPoint x="-27" y="7" as="offset"/>
                    </mxGeometry>
                </mxCell>
                <mxCell id="150" value="" style="endArrow=block;startArrow=block;endFill=1;startFill=1;html=1;edgeStyle=orthogonalEdgeStyle;rounded=0;" parent="1" source="146" target="140" edge="1">
                    <mxGeometry width="160" relative="1" as="geometry">
                        <mxPoint x="590" y="-610" as="sourcePoint"/>
                        <mxPoint x="541" y="-695" as="targetPoint"/>
                        <Array as="points">
                            <mxPoint x="580" y="-600"/>
                            <mxPoint x="580" y="-600"/>
                        </Array>
                    </mxGeometry>
                </mxCell>
                <mxCell id="151" value="" style="endArrow=block;startArrow=block;endFill=1;startFill=1;html=1;edgeStyle=orthogonalEdgeStyle;rounded=0;" parent="1" source="148" target="142" edge="1">
                    <mxGeometry width="160" relative="1" as="geometry">
                        <mxPoint x="761" y="-530" as="sourcePoint"/>
                        <mxPoint x="761" y="-570" as="targetPoint"/>
                        <Array as="points">
                            <mxPoint x="750" y="-550"/>
                            <mxPoint x="750" y="-550"/>
                        </Array>
                    </mxGeometry>
                </mxCell>
                <mxCell id="152" value="«driver»&lt;br&gt;&lt;b&gt;UCS1903&lt;/b&gt;" style="html=1;dropTarget=0;verticalAlign=top;fillColor=#fff2cc;strokeColor=#d6b656;" parent="1" vertex="1">
                    <mxGeometry x="260" y="-430" width="160" height="50" as="geometry"/>
                </mxCell>
                <mxCell id="153" value="" style="shape=module;jettyWidth=8;jettyHeight=4;" parent="152" vertex="1">
                    <mxGeometry x="1" width="20" height="20" relative="1" as="geometry">
                        <mxPoint x="-27" y="7" as="offset"/>
                    </mxGeometry>
                </mxCell>
                <mxCell id="154" value="instance" style="endArrow=block;startArrow=block;endFill=1;startFill=1;html=1;edgeStyle=orthogonalEdgeStyle;rounded=0;" parent="1" source="138" target="122" edge="1">
                    <mxGeometry width="160" relative="1" as="geometry">
                        <mxPoint x="580" y="-350" as="sourcePoint"/>
                        <mxPoint x="130" y="-540" as="targetPoint"/>
                        <Array as="points"/>
                        <mxPoint as="offset"/>
                    </mxGeometry>
                </mxCell>
                <mxCell id="155" value="" style="endArrow=block;startArrow=block;endFill=1;startFill=1;html=1;edgeStyle=orthogonalEdgeStyle;rounded=0;" parent="1" source="152" target="126" edge="1">
                    <mxGeometry width="160" relative="1" as="geometry">
                        <mxPoint x="450" y="-420" as="sourcePoint"/>
                        <mxPoint x="450" y="-510" as="targetPoint"/>
                        <Array as="points">
                            <mxPoint x="440" y="-405"/>
                            <mxPoint x="440" y="-595"/>
                        </Array>
                    </mxGeometry>
                </mxCell>
                <mxCell id="156" value="" style="endArrow=block;startArrow=block;endFill=1;startFill=1;html=1;edgeStyle=orthogonalEdgeStyle;rounded=0;" parent="1" source="135" target="126" edge="1">
                    <mxGeometry width="160" relative="1" as="geometry">
                        <mxPoint x="430" y="-415" as="sourcePoint"/>
                        <mxPoint x="390" y="-585" as="targetPoint"/>
                        <Array as="points">
                            <mxPoint x="440" y="-445"/>
                            <mxPoint x="440" y="-595"/>
                        </Array>
                    </mxGeometry>
                </mxCell>
                <mxCell id="157" value="instance- x, y, z" style="endArrow=block;startArrow=block;endFill=1;startFill=1;html=1;edgeStyle=orthogonalEdgeStyle;rounded=0;" parent="1" source="133" target="126" edge="1">
                    <mxGeometry width="160" relative="1" as="geometry">
                        <mxPoint x="410" y="-455" as="sourcePoint"/>
                        <mxPoint x="390" y="-585" as="targetPoint"/>
                        <Array as="points">
                            <mxPoint x="440" y="-485"/>
                            <mxPoint x="440" y="-595"/>
                        </Array>
                        <mxPoint as="offset"/>
                    </mxGeometry>
                </mxCell>
            </root>
        </mxGraphModel>
    </diagram>
</mxfile>